<?xml version="1.0" encoding="UTF-8"?>
<svg id="a" data-name="레이어_1" xmlns="http://www.w3.org/2000/svg" width="512" height="512" viewBox="0 0 512 512">
  <path d="M407.741,391.012H104.259c16.358-19.658,26.192-44.941,26.192-72.518v-94.682c0-55.557,36.079-102.666,86.075-119.193,12.414-4.124,25.685-6.345,39.474-6.345s27.06,2.221,39.474,6.345c49.995,16.528,86.075,63.636,86.075,119.193v94.682c0,27.578,9.834,52.861,26.192,72.518Z" fill="none" stroke="#000" stroke-linecap="round" stroke-linejoin="round" stroke-width="30"/>
  <path d="M295.981,98.274c0,2.157-.169,4.283-.508,6.345-12.414-4.124-25.685-6.345-39.474-6.345s-27.06,2.221-39.474,6.345c-.338-2.062-.508-4.187-.508-6.345,0-22.09,17.902-39.981,39.981-39.981s39.981,17.892,39.981,39.981Z" fill="none" stroke="#000" stroke-linecap="round" stroke-linejoin="round" stroke-width="30"/>
  <path d="M297.948,411.759c0,23.168-18.78,41.948-41.948,41.948s-41.948-18.78-41.948-41.948c0-7.55,1.988-14.635,5.488-20.747h72.92c3.5,6.112,5.488,13.197,5.488,20.747Z" fill="none" stroke="#000" stroke-linecap="round" stroke-linejoin="round" stroke-width="30"/>
</svg>