<?xml version="1.0" encoding="UTF-8"?>
<svg id="a" data-name="레이어_1" xmlns="http://www.w3.org/2000/svg" width="512" height="512" viewBox="0 0 512 512">
  <circle cx="256" cy="256" r="197.707" fill="none" stroke="#000" stroke-linecap="round" stroke-linejoin="round" stroke-width="30"/>
  <path d="M304.782,73.349c-16.491,18.786-9.787,51.563-28.55,68.081-1.362,1.199-2.947,2.321-4.759,2.422-2.786.155-5.06-2.08-6.938-4.144-3.424-3.762-6.848-7.524-10.272-11.286-1.017-1.117-2.213-2.319-3.723-2.342-1.403-.021-2.583.99-3.604,1.953-15.416,14.531-28.33,31.709-38.007,50.555-2.944,5.733-5.639,11.816-5.849,18.258-.191,5.855,1.686,11.563,3.663,17.077,5.226,14.576,11.411,29.347,11.001,44.826-.41,15.479-9.681,32.055-24.873,35.05-1.751.345-3.604.496-5.287-.096-1.974-.694-3.464-2.316-4.773-3.949-4.177-5.216-7.398-11.194-9.456-17.551-.982-3.034-1.82-6.345-4.226-8.438-3.109-2.704-7.766-2.462-11.803-1.635-7.894,1.618-15.442,4.901-22.007,9.573-4.717,3.357-9.051,7.486-14.51,9.419-4.662,1.65-9.765,1.545-14.669.907-16.543-2.151-32.235-10.332-43.471-22.663" fill="none" stroke="#000" stroke-linecap="round" stroke-linejoin="round" stroke-width="30"/>
  <path d="M256.005,370.895c-3.422,1.577-7.781,2.65-10.699.267-1.758-1.436-2.478-3.759-3.07-5.951-3.049-11.293-4.998-23.666-.39-34.418,2.987-6.969,8.449-12.546,14.016-17.693,9.628-8.9,20.825-17.416,33.9-18.401,4.828-.364,9.67.334,14.44,1.164,11.861,2.066,23.575,4.973,35.025,8.691,1.485.482,2.988.989,4.275,1.872,1.456.999,2.559,2.427,3.551,3.887,5.845,8.604,8.564,18.905,10.906,29.04,2.317,10.025,4.2,21.224-1.071,30.06-3.627,6.081-10.116,9.939-16.793,12.299-1.558.551-3.206,1.04-4.842.802-3.096-.451-5.19-3.277-7.048-5.794-5.908-8.005-12.961-15.163-20.878-21.188-3.138-2.388-6.528-4.65-10.394-5.433-16.851-3.412-27.667,14.683-40.93,20.794Z" fill="none" stroke="#000" stroke-linecap="round" stroke-linejoin="round" stroke-width="30"/>
</svg>