<?xml version="1.0" encoding="UTF-8"?>
<svg id="a" data-name="레이어_1" xmlns="http://www.w3.org/2000/svg" width="512" height="512" viewBox="0 0 512 512">
  <path d="M300.985,272.072c-33.721,33.721-88.393,33.721-122.114,0h0c-33.721-33.721-33.721-88.393,0-122.114l64.286-64.286c33.721-33.721,88.393-33.721,122.114,0h0c33.721,33.721,33.721,88.393,0,122.114" fill="none" stroke="#000" stroke-linecap="round" stroke-linejoin="round" stroke-width="30"/>
  <path d="M211.015,239.928c33.721-33.721,88.393-33.721,122.114,0h0c33.721,33.721,33.721,88.393,0,122.114l-64.286,64.286c-33.721,33.721-88.393,33.721-122.114,0h0c-33.721-33.721-33.721-88.393,0-122.114" fill="none" stroke="#000" stroke-linecap="round" stroke-linejoin="round" stroke-width="30"/>
</svg>