<?xml version="1.0" encoding="UTF-8"?>
<svg id="a" data-name="레이어_1" xmlns="http://www.w3.org/2000/svg" width="512" height="512" viewBox="0 0 512 512">
  <path d="M453.707,283.208v-54.417h-34.737c-4.2-25.341-14.157-48.735-28.497-68.787l24.566-24.566-38.479-38.479-24.566,24.566c-20.052-14.34-43.446-24.297-68.787-28.497v-34.737h-54.417v34.737c-25.341,4.2-48.735,14.157-68.787,28.497l-24.566-24.566-38.479,38.479,24.566,24.566c-14.34,20.052-24.297,43.446-28.497,68.787h-34.737v54.417h34.737c4.2,25.341,14.157,48.735,28.497,68.787l-24.566,24.566,38.479,38.479,24.566-24.566c20.052,14.34,43.446,24.297,68.787,28.497v34.737h54.417v-34.737c25.341-4.2,48.735-14.157,68.787-28.497l24.566,24.566,38.479-38.479-24.566-24.566c14.34-20.052,24.297-43.446,28.497-68.787h34.737Z" fill="none" stroke="#000" stroke-linecap="round" stroke-linejoin="round" stroke-width="30"/>
  <circle cx="256" cy="256" r="40.283" fill="none" stroke="#000" stroke-linecap="round" stroke-linejoin="round" stroke-width="30"/>
</svg>